# xmcd CD database file
#
# Track frame offsets:
#	150
#	39099
#	87696
#	116777
#	142362
#	180334
#
# Disc length: 2774 seconds
#
# Revision: 1
# Processed by: cddbd v1.5.1PL0 Copyright (c) Steve Scherf et al.
# Submitted via: CDex 1.51
#
DISCID=510ad406
DTITLE=Dave Brubeck - Blue Rondo a La Turk
DYEAR=1900
DGENRE=Jazz
TTITLE0=Tritonis (Dave Brubeck)
TTITLE1=Koto Song
TTITLE2=Improvisation
TTITLE3=Big Bad Basie (Dave Brubeck)
TTITLE4=Take Five (Paul Desmond)
TTITLE5=Blue Romdo a La Turk (Dave Brubeck)
EXTD=
EXTT0=
EXTT1=
EXTT2=
EXTT3=
EXTT4=
EXTT5=
PLAYORDER=
